<?xml version="1.0" encoding="utf-8"?>
<svg viewBox="0 0 150 150" width="150" height="150" fill="#000000" xmlns="http://www.w3.org/2000/svg">
	<circle cx="75" cy="79.057" r="70.187" style="fill: rgb(0, 80, 170);" />
	<path d="M 74.044 0.757 C 33.454 0.757 2.5 32.35 2.5 73.872 C 2.5 107.142 22.872 135.619 52.036 145.639 C 55.813 146.317 57.131 143.935 57.131 142.004 C 57.131 140.155 57.055 129.877 57.055 123.56 C 57.055 123.56 36.502 128.103 32.232 114.628 C 32.232 114.628 28.885 105.942 24.122 103.671 C 24.122 103.671 17.467 98.962 24.609 99.051 C 24.609 99.051 31.852 99.646 35.879 106.798 C 42.277 118.425 53.022 115.038 57.21 113.11 C 57.867 108.311 59.773 104.943 61.907 103.005 C 45.55 101.159 29.04 98.723 29.04 69.909 C 29.04 61.649 31.258 57.528 35.94 52.217 C 35.197 50.274 32.656 42.189 36.683 31.828 C 42.846 29.885 56.893 39.919 56.893 39.919 C 62.725 38.316 69.03 37.387 75.279 37.387 C 81.523 37.387 87.862 38.316 93.691 39.919 C 93.691 39.919 107.733 29.9 113.897 31.828 C 117.916 42.278 115.354 50.287 114.627 52.217 C 119.303 57.528 122.195 61.662 122.195 69.909 C 122.195 98.879 104.937 101.159 88.598 103.005 C 91.307 105.37 93.611 109.837 93.611 116.908 C 93.611 127.024 93.523 139.581 93.523 142.025 C 93.523 143.956 94.841 146.302 98.538 145.639 C 127.694 135.613 147.5 107.142 147.5 73.872 C 147.5 32.35 114.632 0.757 74.044 0.757 Z M 29.04 101.493 C 28.452 101.322 27.968 101.427 27.799 101.768 C 27.635 102.11 27.873 102.582 28.452 102.924 C 28.946 103.179 29.52 103.103 29.683 102.678 C 29.854 102.343 29.622 101.823 29.04 101.493 Z M 31.663 104.007 C 31.392 103.945 31.123 103.98 30.919 104.19 C 30.5 104.526 30.588 105.197 31.082 105.792 C 31.582 106.216 32.223 106.464 32.636 106.039 C 33.049 105.696 32.98 105.041 32.48 104.445 C 32.232 104.231 31.94 104.075 31.663 104.007 Z M 34.738 107.908 C 34.447 107.799 34.114 107.819 33.872 107.988 C 33.372 108.331 33.372 109.105 33.872 109.775 C 34.366 110.447 35.109 110.776 35.527 110.432 C 36.015 110.092 36.015 109.242 35.527 108.584 C 35.318 108.242 35.042 108.01 34.738 107.908 Z M 38.101 112.109 C 37.765 112.069 37.454 112.199 37.244 112.451 C 36.838 112.876 37.008 113.691 37.662 114.285 C 38.311 114.97 39.122 115.072 39.534 114.568 C 39.948 114.224 39.71 113.287 39.131 112.691 C 38.811 112.357 38.434 112.151 38.101 112.109 Z M 43.737 115.477 C 43.001 115.306 42.116 115.538 41.947 116.134 C 41.786 116.73 42.359 117.42 43.177 117.591 C 43.913 117.927 44.818 117.57 44.982 116.982 C 45.231 116.4 44.644 115.728 43.737 115.477 Z M 54.832 115.744 C 54.016 115.915 53.434 116.511 53.516 117.176 C 53.596 117.763 54.42 118.092 55.239 117.919 C 56.136 117.748 56.717 117.168 56.549 116.571 C 56.468 115.976 55.657 115.648 54.832 115.744 Z M 49.407 116.415 C 48.494 116.415 47.852 116.908 47.852 117.503 C 47.852 118.172 48.501 118.693 49.488 118.611 C 50.4 118.611 51.048 118.098 51.048 117.503 C 51.048 116.824 50.232 116.324 49.407 116.415 Z" style="fill: rgb(255, 240, 0);" />
</svg>
