<svg xmlns="http://www.w3.org/2000/svg" xmlns:xlink="http://www.w3.org/1999/xlink" width="39" height="39" viewBox="0 0 39 39">
  <defs>
    <filter id="Path_208" x="9.236" y="5.196" width="22.411" height="28.602" filterUnits="userSpaceOnUse">
      <feOffset input="SourceAlpha"/>
      <feGaussianBlur stdDeviation="2.5" result="blur"/>
      <feFlood flood-opacity="0.251"/>
      <feComposite operator="in" in2="blur"/>
      <feComposite in="SourceGraphic"/>
    </filter>
    <filter id="Path_209" x="0" y="0" width="39" height="39" filterUnits="userSpaceOnUse">
      <feOffset input="SourceAlpha"/>
      <feGaussianBlur stdDeviation="2.5" result="blur-2"/>
      <feFlood flood-opacity="0.251"/>
      <feComposite operator="in" in2="blur-2"/>
      <feComposite in="SourceGraphic"/>
    </filter>
  </defs>
  <g id="right" transform="translate(7.5 7.5)">
    <g transform="matrix(1, 0, 0, 1, -7.5, -7.5)" filter="url(#Path_208)">
      <path id="Path_208-2" data-name="Path 208" d="M12.478,10.318a1.016,1.016,0,0,1,1.509,0l5.275,5.711a1.217,1.217,0,0,1,.033,1.587l-5.2,5.627a1.013,1.013,0,0,1-1.509.006,1.216,1.216,0,0,1,0-1.629L17,16.787l-4.528-4.84A1.216,1.216,0,0,1,12.478,10.318Z" transform="translate(4.57 2.71)" fill="#fff"/>
    </g>
    <g transform="matrix(1, 0, 0, 1, -7.5, -7.5)" filter="url(#Path_209)">
      <path id="Path_209-2" data-name="Path 209" d="M15.375,3.375a12,12,0,1,1-12,12A12,12,0,0,1,15.375,3.375ZM8.2,22.552A10.15,10.15,0,1,0,22.552,8.2,10.15,10.15,0,1,0,8.2,22.552Z" transform="translate(4.13 4.13)" fill="#fff"/>
    </g>
  </g>
</svg>
