<svg xmlns="http://www.w3.org/2000/svg" width="14.625" height="18" viewBox="0 0 14.625 18"><path d="M5.624,7.553V18.8a1.128,1.128,0,0,0,1.125,1.125H16.874A1.128,1.128,0,0,0,18,18.8V7.553H5.624ZM9,17.678H7.874V9.8H9Zm2.25,0H10.124V9.8h1.125Zm2.25,0H12.374V9.8H13.5Zm2.25,0H14.624V9.8h1.125Zm2.531-13.5H14.624V2.772a.846.846,0,0,0-.844-.844H9.842A.846.846,0,0,0,9,2.772V4.178H5.342a.846.846,0,0,0-.844.844V6.428H19.124V5.022a.846.846,0,0,0-.844-.844Zm-4.781,0H10.124V3.067H13.5V4.178Z" transform="translate(-4.499 -1.928)" fill="#e6127d"/></svg>