<svg class="fill-current" width="18" height="18" alt="Confirm icon" role="img" version="1.1" viewBox="0 0 18 18" xmlns="http://www.w3.org/2000/svg">
	<path d="m9 0c-4.9706 0-9 4.0294-9 9s4.0294 9 9 9 9-4.0294 9-9-4.0294-9-9-9zm0 1.7419c4.0112 0 7.2581 3.2462 7.2581 7.2581 0 4.0112-3.2462 7.2581-7.2581 7.2581-4.0112 0-7.2581-3.2462-7.2581-7.2581 0-4.0112 3.2462-7.2581 7.2581-7.2581m5.088 4.7274-0.81784-0.82444c-0.16937-0.17075-0.4451-0.17187-0.61585-0.0025l-5.1297 5.0885-2.1699-2.1875c-0.16937-0.17075-0.4451-0.17187-0.61585-0.0025l-0.82448 0.81784c-0.17075 0.16937-0.17187 0.4451-0.0025 0.61588l3.2945 3.3211c0.16937 0.17075 0.4451 0.17187 0.61585 0.0025l6.2633-6.213c0.17071-0.1694 0.1718-0.44514 0.0024-0.61588z" />
</svg>
