<svg xmlns="http://www.w3.org/2000/svg" viewBox="43 77.1 313.9 199.9">
	<path fill-rule="evenodd" fill="#e6127d" d="M192.7 77.5c-.1.2-3.2.8-6.8 1.4-43.3 7.6-78.2 49.7-79.2 95.4l-.1 7.2 45.7.2 45.8.2V77.2h-2.5a8 8 0 0 0-2.9.3m22.7 14.9c-.1 28.9 0 58.9.3 59.1.6.6 86.7.2 87.3-.4 2.4-2.4-9.7-26.6-19-38a67 67 0 0 1-4-4.8 103 103 0 0 0-61-30.8l-3.6-.4v15.3M48.9 80.2c-.8.8-1.5 2.4-1.5 3.6a130072.7 130072.7 0 0 0-4.2 62.1c-.6 8.1.6 11.9 5.4 16.8 1.9 1.8 3.6 3.4 3.8 3.4 1.4 0 5.5 4 6.6 6.3 1.3 2.7 1.3 3.8-1 45.6-2.3 42.4-2.5 48-1.4 49.4 5.7 6.8 13 8.7 19.9 5.1 6.5-3.3 7-7.5 4.9-45.4a11110.4 11110.4 0 0 1-2.7-47.8c-.5-5.4 1.5-9.2 6.8-12.9a43 43 0 0 0 7-6.2l2.8-3.4v-11c-.1-6-.7-18-1.4-26.4l-2-26.8c-1-11.9-1.7-14-5.2-14-4.4 0-4.3-.7-3.5 32 .6 23 .5 24.7-.8 26.1-1.7 1.9-4.2 1.9-6.4 0l-1.8-1.4-.2-27c-.2-29.2-.3-29.6-4.3-29.6-5 0-5 .2-5 29.7 0 29.6 0 29.8-4.9 29.8-4.8 0-5-1-4.5-20.5l.8-26.7c.3-11.8-2.3-15.7-7.2-10.8m298.9 2.1a65.1 65.1 0 0 0-5 7.7 203 203 0 0 0-15 47.8 309 309 0 0 0-5.3 39.3c.3 2.2 2 4.7 5 7.4l5.6 5 3.8 3.7-.5 6.6a707.6 707.6 0 0 1-2.8 28l-1.1 10.6c-3 27-2.9 29.4.3 32.4 5.6 5.3 17.8 4.3 22-1.6l1.9-2.6.2-92.8c.2-102.2.5-95.1-4.4-95.1-1.7 0-2.6.7-4.7 3.6M215.4 183.6c-.1 62 0 92 .6 92.5 3.8 3.6 36.4-8.3 49.7-18.1 5.7-4.2 19.8-17.6 19.8-18.8 0-.2.7-1.3 1.7-2.4 2-2.2 2.4-3 6.8-10.5a104 104 0 0 0 12.9-53.6l-.5-4.4h-91v15.3M110 201c0 2.1 1.9 8.8 3.8 13.3l2.3 5.2c2.3 5.5 9 16 13.6 21.3 7.8 9 22.5 21.7 25.2 21.7.5 0 1.2.5 1.6 1.2.4.6.8 1.1 1 1 .1 0 3.3 1.3 7 3l7.6 3.4c.4 0 3.3 1 6.4 1.9a86.6 86.6 0 0 0 16.8 3.5l2.8.5v-77.8H110v1.8" />
</svg>
