<svg class="fill-current w-auto h-3" xmlns="http://www.w3.org/2000/svg" viewBox="0 0 5 5">
	<path d="m4.932 4.3228-0.9737-0.97354c-0.043948-0.043941-0.10352-0.068353-0.16603-0.068353h-0.15919c0.26955-0.34469 0.42972-0.77824 0.42972-1.2499 0-1.122-0.90925-2.0311-2.0314-2.0311s-2.0314 0.90909-2.0314 2.0311c0 1.122 0.90925 2.0311 2.0314 2.0311 0.47171 0 0.90534-0.16014 1.2501-0.42965v0.15916c0 0.062494 0.024416 0.12206 0.068365 0.166l0.9737 0.97354c0.091804 0.091788 0.24025 0.091788 0.33108 0l0.27639-0.27634c0.091804-0.091788 0.091804-0.24021 9.767e-4 -0.332zm-2.9006-1.0419c-0.69048 0-1.2501-0.55854-1.2501-1.2499 0-0.69036 0.55863-1.2499 1.2501-1.2499 0.69048 0 1.2501 0.55854 1.2501 1.2499 0 0.69036-0.55863 1.2499-1.2501 1.2499z">
	</path>
</svg>
