<?xml version="1.0" encoding="utf-8"?>
<svg viewBox="-9.334 18.668 74.672 74.672" width="74.672" height="74.672" xmlns="http://www.w3.org/2000/svg" xmlns:bx="https://boxy-svg.com">
  <defs>
    <filter id="drop-shadow-filter-0" color-interpolation-filters="sRGB" x="-500%" y="-500%" width="1000%" height="1000%" bx:preset="drop-shadow 1 0 0 10 0.4 rgba(0,0,0,0.3)">
      <feGaussianBlur in="SourceAlpha" stdDeviation="10"/>
      <feOffset dx="0" dy="0"/>
      <feComponentTransfer result="offsetblur">
        <feFuncA id="spread-ctrl" type="linear" slope="0.8"/>
      </feComponentTransfer>
      <feFlood flood-color="rgba(0,0,0,0.3)"/>
      <feComposite in2="offsetblur" operator="in"/>
      <feMerge>
        <feMergeNode/>
        <feMergeNode in="SourceGraphic"/>
      </feMerge>
    </filter>
  </defs>
  <path d="M 41.467 42.46 C 37.894 38.883 33.144 36.916 28.081 36.911 C 17.65 36.911 9.165 45.398 9.161 55.832 C 9.158 59.165 10.031 62.419 11.684 65.286 L 9.002 75.097 L 19.032 72.463 C 21.795 73.971 24.91 74.764 28.072 74.764 L 28.081 74.764 C 28.081 74.764 28.081 74.764 28.081 74.764 C 38.508 74.764 46.999 66.28 47.002 55.846 C 47.006 50.789 45.037 46.037 41.467 42.46 Z M 20.397 56.52 C 20.161 56.202 18.469 53.956 18.469 51.631 C 18.469 49.301 19.69 48.158 20.12 47.685 C 20.554 47.212 21.068 47.092 21.382 47.092 C 21.698 47.092 22.012 47.095 22.289 47.108 C 22.579 47.126 22.969 46.999 23.354 47.923 C 23.747 48.867 24.692 51.198 24.812 51.434 C 24.93 51.667 25.008 51.944 24.849 52.261 C 24.692 52.574 24.616 52.772 24.377 53.047 C 24.142 53.326 23.88 53.664 23.668 53.875 C 23.43 54.114 23.183 54.371 23.46 54.841 C 23.737 55.315 24.685 56.861 26.09 58.117 C 27.896 59.728 29.42 60.225 29.89 60.464 C 30.364 60.7 30.641 60.661 30.916 60.346 C 31.192 60.029 32.1 58.965 32.414 58.491 C 32.728 58.018 33.045 58.097 33.478 58.254 C 33.912 58.415 36.233 59.555 36.707 59.791 C 37.179 60.029 37.496 60.15 37.611 60.346 C 37.733 60.543 37.733 61.488 37.338 62.593 C 36.945 63.698 35.055 64.704 34.145 64.841 C 33.329 64.96 32.3 65.014 31.169 64.654 C 30.482 64.438 29.6 64.143 28.473 63.657 C 23.731 61.611 20.633 56.836 20.397 56.52 Z" style="stroke: none; stroke-width: 1; stroke-dasharray: none; stroke-linecap: butt; stroke-linejoin: miter; stroke-miterlimit: 10; fill-rule: evenodd; opacity: 1; fill: rgb(255, 255, 255); filter: url(#drop-shadow-filter-0);" stroke-linecap="round"/>
</svg>